<?xml version="1.0" standalone="no"?><!-- Generator: Gravit.io --><svg xmlns="http://www.w3.org/2000/svg" xmlns:xlink="http://www.w3.org/1999/xlink" style="isolation:isolate" viewBox="0 0 1024 1024" width="1024" height="1024"><defs><clipPath id="_clipPath_6IJmA5Nhdvb0eKrQutPzSu85Ne7YzmfI"><rect width="1024" height="1024"/></clipPath></defs><g clip-path="url(#_clipPath_6IJmA5Nhdvb0eKrQutPzSu85Ne7YzmfI)"><g id="Group"><path d=" M 114.897 439.884 C 95.649 411.948 78.779 381.374 64.582 348.696 C 36.136 283.586 17.921 211.738 11 137.345 L 11 113.483 C 11.742 98.33 16.341 83.934 24.069 72.577 C 28.112 67.437 33.042 63.637 38.444 61.498 C 42.052 60.051 45.783 59.192 49.553 58.941 L 56.741 58.941 C 66.542 58.941 77.651 57.237 86.799 59.793 C 96.6 62.35 231.209 64.907 315.502 170.582 C 372.351 127.971 592.56 141.607 638.954 196.149 C 638.954 179.104 765.721 73.429 921.893 87.064 C 933.956 87.513 945.701 92.226 955.871 100.7 C 960.316 104.805 964.091 110.019 966.98 116.04 L 972.207 132.232 C 975.112 154.041 974.444 176.405 970.247 197.853 C 966.319 220.539 960.399 242.558 952.604 263.474 C 940.429 299.337 926.005 333.827 909.477 366.593 L 877.459 442.441 L 883.993 444.145 L 883.993 502.096 L 859.816 510.619 C 869.011 547.122 872.13 585.764 868.964 623.964 C 864.226 672.415 847.206 717.41 820.61 751.798 L 807.541 768.842 C 782.531 797.063 755.878 822.707 727.821 845.542 C 705.275 862.923 681.405 877.203 656.597 888.153 L 653.983 889.857 L 652.023 890.71 L 650.716 894.119 C 643.862 911.803 634.298 927.466 622.618 940.139 C 615.343 948.497 607.465 955.917 599.094 962.296 C 571.012 982.437 539.649 993.539 507.613 994.681 C 491.305 996.44 474.913 996.44 458.605 994.681 C 431.276 991.625 404.308 984.476 378.232 973.375 C 368.055 968.181 358.221 961.91 348.827 954.626 C 337.537 944.919 327.777 932.479 320.076 917.981 C 319.148 916.327 318.276 914.621 317.462 912.867 L 314.195 912.015 C 262.207 901.53 214.26 869.216 177.627 819.975 C 152.752 785.276 134.8 743.132 125.352 697.255 C 118.838 667.743 114.463 637.498 112.283 606.92 C 109.175 575.555 108.519 543.861 110.323 512.323 L 110.323 505.505 L 101.828 502.096 L 101.174 444.145 L 114.243 439.884 L 114.897 439.884 Z " fill-rule="evenodd" fill="rgb(0,0,0)" fill-opacity="0.2"/><path d=" M 139.727 408.352 C 120.365 380.227 103.488 349.353 89.413 316.312 C 60.967 251.202 42.751 179.353 35.831 104.961 C 35.559 99.001 35.559 93.025 35.831 87.064 L 35.831 81.099 C 36.498 67.814 40.132 55.075 46.286 44.453 C 50.62 37.204 56.547 31.853 63.275 29.113 C 66.672 27.734 70.181 26.876 73.73 26.557 L 81.571 26.557 C 90.719 26.557 102.481 24.852 111.629 27.409 C 121.431 29.965 255.386 32.522 340.333 138.198 C 397.182 95.587 616.737 109.222 663.785 163.764 C 663.785 146.72 789.898 41.897 946.723 54.68 C 958.85 55.384 970.599 60.393 980.702 69.168 C 984.753 73.245 988.282 78.135 991.157 83.655 C 996.384 96.512 999.079 110.862 998.998 125.414 C 998.998 139.902 997.038 152.685 995.078 165.469 C 990.712 188.374 984.582 210.645 976.781 231.942 C 964.691 267.424 950.49 301.618 934.308 334.209 L 901.636 410.909 L 908.824 412.613 L 908.17 469.712 L 884.647 478.234 C 893.505 514.831 896.399 553.439 893.141 591.58 C 888.779 639.999 871.965 685.061 845.44 719.413 C 836.576 730.926 827.193 741.74 817.342 751.798 C 796.872 774.78 775.02 795.584 751.999 814.01 C 729.66 831.337 706.011 845.616 681.427 856.621 L 678.16 858.325 L 676.2 858.325 L 675.546 861.734 C 668.768 879.725 659.2 895.686 647.449 908.606 C 639.943 916.723 631.846 923.859 623.271 929.912 C 595.571 949.763 564.684 960.855 533.097 962.296 C 516.571 964.075 499.961 964.075 483.436 962.296 C 456.103 959.27 429.132 952.121 403.063 940.991 C 392.849 935.908 383.007 929.633 373.658 922.242 C 367.124 917.129 360.589 910.311 355.362 903.493 C 350.143 896.724 345.737 888.966 342.293 880.483 L 339.026 880.483 C 286.655 869.648 238.453 836.718 201.804 786.739 C 177.258 752.192 159.539 710.361 150.182 664.871 C 143.669 635.358 139.294 605.114 137.114 574.535 C 133.714 540.916 133.057 506.921 135.153 473.121 L 126.659 469.712 L 125.352 412.613 L 139.727 408.352 Z " fill-rule="evenodd" fill="rgb(255,255,255)" vector-effect="non-scaling-stroke" stroke-width="5.224" stroke="rgb(207,207,207)" stroke-linejoin="round" stroke-linecap="butt" stroke-miterlimit="1.41"/><path d=" M 324.65 192.74 C 324.65 192.74 475.594 107.518 669.665 219.159 C 669.665 219.159 752.652 131.38 887.914 104.961 C 1023.175 78.542 889.874 342.731 889.874 342.731 L 837.599 464.599 C 837.599 464.599 888.567 599.25 802.967 701.516 C 761.227 755.652 710.464 796.483 654.636 820.827 C 654.636 820.827 629.152 919.685 498.465 913.72 C 374.312 907.754 360.589 837.872 360.589 837.872 C 360.589 837.872 218.14 825.941 182.854 630.782 C 158.024 490.165 182.854 419.431 182.854 419.431 C 182.854 419.431 109.016 325.687 85.492 172.287 C 64.582 34.227 129.926 81.099 178.934 91.325 C 224.674 99.848 316.156 168.025 325.304 191.888 L 324.65 192.74 Z " fill-rule="evenodd" fill="rgb(230,182,120)"/><path d=" M 167.825 415.17 C 150.329 389.548 134.994 361.548 122.084 331.652 C 96.075 271.737 79.419 205.698 73.077 137.345 L 73.077 115.188 C 73.672 103.208 76.843 91.69 82.225 81.951 C 86.22 75.18 91.684 70.133 97.907 67.463 C 102.573 65.673 107.42 64.811 112.283 64.907 L 114.897 64.907 C 123.391 64.907 131.886 66.611 140.381 69.168 L 164.558 76.838 L 171.092 78.542 L 177.627 80.247 L 182.854 81.099 L 185.468 81.099 C 199.489 84.849 213.098 90.861 225.981 98.995 C 258.76 117.146 289.882 140.013 318.769 167.173 L 327.917 179.104 L 332.491 176.548 C 442.669 134.676 560.624 144.63 665.745 204.671 L 668.359 205.523 L 671.626 202.967 L 676.2 198.705 C 740.305 143.886 812.756 107.834 888.567 93.03 L 896.408 92.178 C 900.76 91.785 905.126 91.785 909.477 92.178 C 920.364 92.37 930.996 96.501 940.189 104.109 C 944.051 107.858 947.37 112.476 949.99 117.744 C 952.224 122.245 953.983 127.118 955.218 132.232 C 956.794 140.301 957.454 148.628 957.178 156.947 C 954.622 190.576 947.776 223.413 936.922 254.1 C 925.745 286.632 912.636 317.976 897.715 347.844 L 868.311 417.726 L 874.845 419.431 L 873.538 472.269 L 852.628 480.791 C 860.8 514.055 863.472 549.2 860.469 583.91 C 855.511 635.95 835.099 683.378 803.62 716.004 L 790.552 731.344 C 771.831 751.997 751.955 770.798 731.089 787.591 C 710.428 803.625 688.525 816.766 665.745 826.793 L 663.131 828.497 L 661.171 828.497 C 654.891 845.936 645.744 861.356 634.38 873.665 C 627.795 881.75 620.566 888.892 612.816 894.971 C 587.124 913.358 558.467 923.578 529.176 924.799 C 481.504 927.81 433.926 916.74 389.994 892.414 C 381.321 886.309 373.393 878.554 366.47 869.404 C 362.794 864.76 359.508 859.618 356.669 854.064 L 354.055 848.951 L 351.441 848.951 C 303.708 838.777 259.735 808.907 225.981 763.729 C 203.265 731.884 186.886 693.257 178.28 651.235 C 171.951 624.274 167.576 596.597 165.211 568.57 C 162.513 539.727 162.076 510.601 163.904 481.643 L 163.904 475.678 L 156.063 472.269 L 155.41 419.431 L 168.479 415.17 L 167.825 415.17 Z  M 181.547 481.643 C 178.191 525.322 180.622 569.429 188.735 612.033 L 195.27 645.27 C 203.674 682.231 217.92 716.486 237.09 745.832 C 258.938 777.598 286.919 801.142 318.116 814.01 C 331.686 820.115 345.699 824.398 359.936 826.793 L 367.124 826.793 C 367.124 830.202 368.431 832.759 369.084 835.315 C 370.033 838.938 371.351 842.378 373.005 845.542 C 376.72 852.002 381.12 857.741 386.073 862.586 C 392.608 869.404 401.102 874.517 408.944 879.631 C 452.085 899.436 498.123 906.14 543.552 899.232 C 567.076 895.823 589.293 886.449 608.896 870.256 C 622.75 858.834 634.382 843.372 642.875 825.089 C 644.125 822.358 645.217 819.509 646.142 816.566 L 647.449 811.453 L 661.824 803.783 C 682.332 793.239 702.398 781.292 721.941 767.99 C 747.426 749.336 770.931 726.416 791.858 699.812 L 802.313 686.176 C 814.42 670.63 824.369 652.464 831.718 632.486 C 843.309 599.448 846.954 562.605 842.173 526.811 L 842.173 524.254 C 823.223 646.122 778.79 640.156 778.79 640.156 C 778.79 640.156 690.575 652.94 631.113 644.418 C 571.65 635.895 537.671 513.175 537.671 513.175 L 491.93 513.175 C 491.93 513.175 458.605 635.043 399.142 644.418 C 339.679 652.94 251.465 640.156 251.465 640.156 C 251.465 640.156 196.576 647.826 182.854 482.495 L 181.547 482.495 L 181.547 481.643 Z  M 543.552 878.779 C 543.552 882.187 538.324 889.005 534.404 889.857 C 523.949 891.562 489.97 891.562 479.515 889.857 C 475.594 889.857 470.367 882.187 470.367 878.779 C 470.367 874.517 475.594 867.7 479.515 866.847 C 489.97 865.143 523.949 865.143 534.404 866.847 C 538.324 867.7 543.552 875.37 543.552 878.779 Z  M 504.346 695.551 C 538.978 695.551 567.076 733.049 567.076 778.216 C 567.076 824.236 538.978 861.734 504.346 861.734 C 487.422 861.735 471.2 852.909 459.294 837.221 C 447.389 821.534 440.788 800.288 440.962 778.216 C 440.962 733.049 469.06 695.551 504.346 695.551 Z  M 238.396 422.84 C 238.396 422.84 344.253 393.864 422.666 431.362 C 482.129 461.19 453.378 519.141 439.655 550.673 C 425.933 582.205 393.261 611.181 376.272 613.738 C 359.282 616.294 271.722 610.329 271.722 610.329 C 271.722 610.329 221.407 593.284 211.605 499.54 C 205.725 443.293 238.396 422.84 238.396 422.84 Z  M 791.205 422.84 C 791.205 422.84 686.001 393.864 606.935 431.362 C 548.126 461.19 576.224 519.141 590.599 550.673 C 603.668 582.205 636.994 611.181 653.983 613.738 C 670.319 616.294 757.88 610.329 757.88 610.329 C 757.88 610.329 808.848 593.284 817.996 499.54 C 824.53 443.293 791.858 422.84 791.858 422.84 L 791.205 422.84 Z  M 665.745 456.929 C 685.348 467.155 694.496 494.426 687.308 518.289 C 680.774 541.299 658.557 552.378 639.607 542.151 C 630.436 538.099 622.907 529.391 618.725 518.001 C 614.543 506.611 614.062 493.502 617.39 481.643 C 625.232 457.781 646.142 447.554 665.745 456.929 Z  M 390.647 456.929 C 410.251 467.155 419.399 494.426 412.211 518.289 C 405.677 541.299 383.46 552.378 364.51 542.151 C 355.339 538.099 347.81 529.391 343.627 518.001 C 339.445 506.611 338.964 493.502 342.293 481.643 C 349.481 457.781 371.044 447.554 390.647 456.929 Z  M 850.668 411.761 L 882.686 336.765 L 885.953 329.948 L 889.221 322.278 C 904.021 289.954 917.12 256.356 928.427 221.715 C 932.95 204.19 936.445 186.242 938.882 168.025 L 939.535 161.208 L 939.535 150.981 C 939.326 142.73 937.282 134.736 933.654 127.971 C 930.804 123.21 926.94 119.653 922.546 117.744 C 918.765 115.906 914.806 114.759 910.784 114.335 C 903.596 114.335 896.408 114.335 889.221 116.04 C 816.257 130.833 746.54 165.693 684.695 218.307 L 674.893 227.681 L 670.972 232.794 L 661.171 226.829 L 654.636 223.42 C 627.919 209.264 600.39 197.866 572.303 189.331 C 496.805 166.958 418.235 169.3 343.6 196.149 L 329.224 202.967 L 320.73 207.228 L 316.809 197.853 C 275.586 156.456 229.152 124.734 179.587 104.109 L 174.359 102.404 L 169.132 101.552 L 142.994 93.03 C 141.034 93.03 139.074 93.03 136.46 91.325 C 127.441 88.835 118.233 87.692 109.016 87.917 C 105.515 88.168 102.13 89.64 99.214 92.178 L 97.907 93.882 C 94.63 98.057 92.359 103.388 91.373 109.222 L 91.373 116.892 C 90.742 123.962 90.523 131.084 90.719 138.198 L 91.373 149.277 C 92.351 160.19 93.879 171.009 95.947 181.661 C 110.617 266.658 142.165 345.129 187.428 409.204 L 213.566 401.534 C 213.566 401.534 251.465 387.899 303.087 383.638 C 369.852 373.865 437.211 393.354 494.544 439.032 C 502.385 442.441 508.92 444.145 514.801 444.145 C 521.938 443.942 529.002 442.215 535.711 439.032 C 542.245 434.771 546.166 429.658 546.166 429.658 C 652.676 342.731 816.036 401.534 816.036 401.534 L 850.668 411.761 Z " fill-rule="evenodd" fill="rgb(67,50,49)"/><path d=" M 796.432 359.775 L 745.464 305.233 C 743.504 274.553 753.959 243.873 782.057 214.045 C 782.057 214.045 864.39 166.321 899.022 171.434 C 933.654 176.548 820.61 293.302 796.432 358.923 L 796.432 359.775 Z  M 225.328 353.81 L 280.87 307.79 C 285.444 277.962 278.256 245.578 252.772 211.489 C 252.772 211.489 175.666 151.833 140.381 151.833 C 105.095 151.833 207.031 283.075 225.328 353.81 Z " fill-rule="evenodd" fill="rgb(243,221,192)"/><path d=" M 646.142 474.825 C 650.062 477.382 651.369 483.348 650.062 488.461 C 648.102 493.574 643.528 496.983 640.261 495.279 C 636.34 492.722 635.033 486.756 636.34 481.643 C 638.3 475.678 642.875 473.121 646.142 474.825 Z  M 371.044 474.825 C 374.965 477.382 376.272 483.348 374.965 488.461 C 373.005 493.574 368.431 496.983 365.163 495.279 C 361.243 492.722 359.282 486.756 361.243 481.643 C 362.55 475.678 367.777 473.121 371.044 474.825 Z " fill-rule="evenodd" fill="rgb(255,255,255)"/></g><g style="isolation:isolate" id="Layer 0"/></g></svg>